<mxfile host="65bd71144e" scale="3" border="0">
    <diagram id="X53o-h_2bkQgsCoRiWgb" name="Page-1">
        <mxGraphModel dx="866" dy="817" grid="1" gridSize="10" guides="1" tooltips="1" connect="1" arrows="1" fold="1" page="1" pageScale="1" pageWidth="1169" pageHeight="827" background="#FFFFFF" math="0" shadow="0">
            <root>
                <mxCell id="0"/>
                <mxCell id="1" parent="0"/>
                <mxCell id="6" value="" style="edgeStyle=none;html=1;fontSize=15;" parent="1" source="2" target="5" edge="1">
                    <mxGeometry relative="1" as="geometry"/>
                </mxCell>
                <mxCell id="2" value="&lt;font style=&quot;font-size: 15px;&quot;&gt;编码器获取角度&lt;/font&gt;" style="rounded=1;whiteSpace=wrap;html=1;fillColor=#f5f5f5;fontColor=#333333;strokeColor=#666666;" parent="1" vertex="1">
                    <mxGeometry x="380" y="50" width="120" height="60" as="geometry"/>
                </mxCell>
                <mxCell id="8" value="" style="edgeStyle=none;html=1;fontSize=15;" parent="1" source="5" target="7" edge="1">
                    <mxGeometry relative="1" as="geometry"/>
                </mxCell>
                <mxCell id="5" value="&lt;font style=&quot;font-size: 15px;&quot; color=&quot;#3399ff&quot;&gt;下位机Arduino&lt;/font&gt;" style="shape=hexagon;perimeter=hexagonPerimeter2;whiteSpace=wrap;html=1;fixedSize=1;rounded=1;fillColor=#fff2cc;strokeColor=#d6b656;" parent="1" vertex="1">
                    <mxGeometry x="385" y="140" width="110" height="60" as="geometry"/>
                </mxCell>
                <mxCell id="14" value="" style="edgeStyle=none;html=1;fontSize=17;fontColor=#000000;" parent="1" source="7" target="13" edge="1">
                    <mxGeometry relative="1" as="geometry"/>
                </mxCell>
                <mxCell id="7" value="&lt;font color=&quot;#ff9933&quot; style=&quot;font-size: 17px;&quot;&gt;上位机PC&lt;/font&gt;" style="shape=hexagon;perimeter=hexagonPerimeter2;whiteSpace=wrap;html=1;fixedSize=1;rounded=1;fillColor=#d5e8d4;strokeColor=#82b366;" parent="1" vertex="1">
                    <mxGeometry x="387.5" y="250" width="105" height="70" as="geometry"/>
                </mxCell>
                <mxCell id="11" value="" style="edgeStyle=none;html=1;fontSize=17;fontColor=#FF9933;" parent="1" source="10" edge="1">
                    <mxGeometry relative="1" as="geometry">
                        <mxPoint x="440" y="225" as="targetPoint"/>
                    </mxGeometry>
                </mxCell>
                <mxCell id="10" value="&lt;font color=&quot;#00cc66&quot;&gt;KF&lt;/font&gt;" style="shape=step;perimeter=stepPerimeter;whiteSpace=wrap;html=1;fixedSize=1;fontSize=17;fontColor=#FF9933;" parent="1" vertex="1">
                    <mxGeometry x="300" y="200" width="80" height="50" as="geometry"/>
                </mxCell>
                <mxCell id="12" value="&lt;font color=&quot;#000000&quot;&gt;Serial&lt;/font&gt;" style="text;html=1;strokeColor=none;fillColor=none;align=center;verticalAlign=middle;whiteSpace=wrap;rounded=0;fontSize=17;fontColor=#FF9933;" parent="1" vertex="1">
                    <mxGeometry x="450" y="210" width="60" height="30" as="geometry"/>
                </mxCell>
                <mxCell id="16" value="" style="edgeStyle=none;html=1;fontSize=15;fontColor=#000000;" parent="1" source="13" target="15" edge="1">
                    <mxGeometry relative="1" as="geometry">
                        <Array as="points">
                            <mxPoint x="440" y="460"/>
                            <mxPoint x="290" y="460"/>
                        </Array>
                    </mxGeometry>
                </mxCell>
                <mxCell id="13" value="&lt;font style=&quot;font-size: 15px;&quot;&gt;译码+单位变换&lt;/font&gt;" style="whiteSpace=wrap;html=1;rounded=1;fillColor=#f5f5f5;fontColor=#333333;strokeColor=#666666;" parent="1" vertex="1">
                    <mxGeometry x="380" y="354" width="120" height="60" as="geometry"/>
                </mxCell>
                <mxCell id="18" value="" style="edgeStyle=none;html=1;fontSize=15;fontColor=#000000;" parent="1" source="15" target="17" edge="1">
                    <mxGeometry relative="1" as="geometry"/>
                </mxCell>
                <mxCell id="15" value="&lt;font style=&quot;font-size: 15px;&quot;&gt;目标位置发送至主端机器人电机&lt;/font&gt;" style="whiteSpace=wrap;html=1;fillColor=#cce5ff;strokeColor=#36393d;rounded=1;" parent="1" vertex="1">
                    <mxGeometry x="230" y="520" width="120" height="60" as="geometry"/>
                </mxCell>
                <mxCell id="21" style="edgeStyle=none;html=1;entryX=1;entryY=0.5;entryDx=0;entryDy=0;fontSize=15;fontColor=#ff337a;" parent="1" source="17" target="20" edge="1">
                    <mxGeometry relative="1" as="geometry">
                        <Array as="points">
                            <mxPoint x="585" y="660"/>
                        </Array>
                    </mxGeometry>
                </mxCell>
                <mxCell id="17" value="&lt;font color=&quot;#3399ff&quot; style=&quot;font-size: 15px;&quot;&gt;映射角度发送至从端机器人电机&lt;/font&gt;" style="whiteSpace=wrap;html=1;fillColor=#f9f7ed;strokeColor=#36393d;rounded=1;" parent="1" vertex="1">
                    <mxGeometry x="525" y="520" width="120" height="60" as="geometry"/>
                </mxCell>
                <mxCell id="19" value="&lt;font color=&quot;#ff337a&quot;&gt;主动映射关系&lt;/font&gt;" style="shape=callout;whiteSpace=wrap;html=1;perimeter=calloutPerimeter;fontSize=15;fontColor=#3399FF;" parent="1" vertex="1">
                    <mxGeometry x="370" y="490" width="120" height="60" as="geometry"/>
                </mxCell>
                <mxCell id="22" style="edgeStyle=none;html=1;entryX=0;entryY=0.5;entryDx=0;entryDy=0;fontSize=15;fontColor=#000000;" parent="1" source="20" target="2" edge="1">
                    <mxGeometry relative="1" as="geometry">
                        <Array as="points">
                            <mxPoint x="150" y="660"/>
                            <mxPoint x="150" y="80"/>
                        </Array>
                    </mxGeometry>
                </mxCell>
                <mxCell id="20" value="&lt;font color=&quot;#000000&quot;&gt;执行仿真命令&lt;/font&gt;" style="ellipse;whiteSpace=wrap;html=1;fontSize=15;fontColor=#ff337a;" parent="1" vertex="1">
                    <mxGeometry x="380" y="620" width="120" height="80" as="geometry"/>
                </mxCell>
                <mxCell id="23" value="" style="shape=waypoint;sketch=0;fillStyle=solid;size=6;pointerEvents=1;points=[];fillColor=none;resizable=0;rotatable=0;perimeter=centerPerimeter;snapToPoint=1;fontSize=15;fontColor=#000000;" parent="1" vertex="1">
                    <mxGeometry x="670" y="310" width="20" height="20" as="geometry"/>
                </mxCell>
                <mxCell id="24" value="" style="shape=waypoint;sketch=0;fillStyle=solid;size=6;pointerEvents=1;points=[];fillColor=none;resizable=0;rotatable=0;perimeter=centerPerimeter;snapToPoint=1;fontSize=15;fontColor=#000000;" parent="1" vertex="1">
                    <mxGeometry x="70" y="310" width="20" height="20" as="geometry"/>
                </mxCell>
                <mxCell id="25" value="" style="shape=waypoint;sketch=0;fillStyle=solid;size=6;pointerEvents=1;points=[];fillColor=none;resizable=0;rotatable=0;perimeter=centerPerimeter;snapToPoint=1;fontSize=15;fontColor=#000000;" parent="1" vertex="1">
                    <mxGeometry x="430" width="20" height="20" as="geometry"/>
                </mxCell>
                <mxCell id="26" value="" style="shape=waypoint;sketch=0;fillStyle=solid;size=6;pointerEvents=1;points=[];fillColor=none;resizable=0;rotatable=0;perimeter=centerPerimeter;snapToPoint=1;fontSize=15;fontColor=#000000;" parent="1" vertex="1">
                    <mxGeometry x="430" y="750" width="20" height="20" as="geometry"/>
                </mxCell>
            </root>
        </mxGraphModel>
    </diagram>
</mxfile>